<svg width="283" height="73" viewBox="0 0 283 73" fill="none" xmlns="http://www.w3.org/2000/svg">
<g clip-path="url(#clip0_480_1657)">
<g clip-path="url(#clip1_480_1657)">
<path fill-rule="evenodd" clip-rule="evenodd" d="M103.92 54.0994C102.744 54.4264 101.403 54.5882 99.9016 54.5882C96.1105 54.5882 94.2162 53.2189 94.2162 50.48C94.2162 47.6116 96.3067 46.1762 100.489 46.1762C102.188 46.1762 103.332 46.2745 103.92 46.4702V54.0994ZM98.6266 30.6245C96.9927 30.6245 95.407 30.7711 93.8728 31.0645C92.3363 31.3581 91.111 31.7662 90.1966 32.2872L90.6865 36.8841C92.0595 36.4933 93.2843 36.2166 94.3627 36.0531C95.4406 35.8913 96.5346 35.8082 97.6464 35.8082C101.828 35.8082 103.92 37.4071 103.92 40.6008V41.677C102.94 41.4813 101.567 41.3839 99.8033 41.3839C96.1424 41.3839 93.2509 42.2 91.1285 43.8293C89.004 45.4598 87.9425 47.7096 87.9425 50.5774C87.9425 56.4462 91.9618 59.3808 99.999 59.3808C103.266 59.3808 106.664 58.8917 110.193 57.9132V41.0899C110.193 34.1139 106.337 30.6245 98.6266 30.6245Z" fill="#101828"/>
<path fill-rule="evenodd" clip-rule="evenodd" d="M113.036 31.3096H119.995L126.759 52.4367L133.62 31.3096H140.286L129.895 58.6963H123.425L113.036 31.3096Z" fill="#101828"/>
<path fill-rule="evenodd" clip-rule="evenodd" d="M157.732 54.0994C156.556 54.4264 155.216 54.5882 153.714 54.5882C149.923 54.5882 148.028 53.2189 148.028 50.48C148.028 47.6116 150.119 46.1762 154.302 46.1762C156 46.1762 157.144 46.2745 157.732 46.4702V54.0994ZM152.442 30.6245C150.808 30.6245 149.223 30.7711 147.688 31.0645C146.153 31.3581 144.927 31.7662 144.012 32.2872L144.503 36.8841C145.875 36.4933 147.1 36.2166 148.178 36.0531C149.257 35.8913 150.35 35.8082 151.462 35.8082C155.644 35.8082 157.735 37.4071 157.735 40.6008V41.677C156.755 41.4813 155.383 41.3839 153.619 41.3839C149.958 41.3839 147.066 42.2 144.944 43.8293C142.82 45.4598 141.758 47.7096 141.758 50.5774C141.758 56.4462 145.777 59.3808 153.815 59.3808C157.081 59.3808 160.481 58.8917 164.009 57.9132V41.0899C164.009 34.1139 160.152 30.6245 152.442 30.6245Z" fill="#101828"/>
<path fill-rule="evenodd" clip-rule="evenodd" d="M188.274 42.5589C188.274 40.0818 187.799 38.3694 186.852 37.4237C185.904 36.4797 184.221 36.0059 181.805 36.0059C181.216 36.0059 180.513 36.0711 179.697 36.201C178.879 36.3329 178.112 36.4947 177.393 36.6898V58.6974H171.022V32.6799C172.654 32.0291 174.517 31.5233 176.609 31.1638C178.7 30.8064 180.726 30.6265 182.687 30.6265C190.658 30.6265 194.645 34.2127 194.645 41.385V58.6974H188.274V42.5589Z" fill="#101828"/>
<path fill-rule="evenodd" clip-rule="evenodd" d="M215.619 54.0994C214.442 54.4264 213.102 54.5882 211.6 54.5882C207.809 54.5882 205.915 53.2189 205.915 50.48C205.915 47.6116 208.005 46.1762 212.188 46.1762C213.886 46.1762 215.03 46.2745 215.619 46.4702V54.0994ZM210.33 30.6245C208.696 30.6245 207.11 30.7711 205.576 31.0645C204.04 31.3581 202.814 31.7662 201.9 32.2872L202.39 36.8841C203.763 36.4933 204.988 36.2166 206.066 36.0531C207.144 35.8913 208.238 35.8082 209.35 35.8082C213.531 35.8082 215.623 37.4071 215.623 40.6008V41.677C214.643 41.4813 213.271 41.3839 211.507 41.3839C207.846 41.3839 204.955 42.2 202.832 43.8293C200.707 45.4598 199.646 47.7096 199.646 50.5774C199.646 56.4462 203.665 59.3808 211.702 59.3808C214.97 59.3808 218.368 58.8917 221.896 57.9132V41.0899C221.896 34.1139 218.04 30.6245 210.33 30.6245Z" fill="#101828"/>
<path fill-rule="evenodd" clip-rule="evenodd" d="M245.614 53.7081C244.894 53.9693 243.588 54.0995 241.694 54.0995C236.269 54.0995 233.558 51.1328 233.558 45.1985C233.558 42.1998 234.26 39.8846 235.665 38.2541C237.07 36.6247 239.047 35.8086 241.595 35.8086C243.164 35.8086 244.503 36.0377 245.614 36.4934V53.7081ZM245.617 20.7466V31.212C244.441 30.8212 242.905 30.6255 241.01 30.6255C236.827 30.6255 233.429 31.979 230.815 34.6845C228.201 37.3906 226.895 40.9291 226.895 45.297C226.895 49.8615 228.17 53.3509 230.718 55.7624C233.266 58.1751 236.991 59.3809 241.892 59.3809C244.963 59.3809 248.328 58.8921 251.988 57.9142V20.7466H245.617Z" fill="#101828"/>
<path fill-rule="evenodd" clip-rule="evenodd" d="M263.651 42.1661C263.85 40.0799 264.485 38.4494 265.562 37.2758C266.643 36.1022 268.028 35.5148 269.729 35.5148C271.427 35.5148 272.801 36.1022 273.847 37.2758C274.89 38.4494 275.413 40.0799 275.413 42.1661H263.651ZM281.589 43.5354C281.589 39.5589 280.543 36.4117 278.453 34.0964C276.361 31.7832 273.517 30.6245 269.925 30.6245C266.005 30.6245 262.881 31.9297 260.564 34.5369C258.243 37.1453 257.084 40.6991 257.084 45.198C257.084 49.6975 258.325 53.1864 260.809 55.664C263.292 58.1428 266.821 59.3808 271.396 59.3808C274.399 59.3808 277.244 58.8578 279.922 57.8155L279.235 53.0229C276.948 53.8051 274.496 54.1965 271.884 54.1965C266.525 54.1965 263.781 51.7849 263.651 46.9587H281.589V43.5354Z" fill="#101828"/>
<path d="M20.179 19.5957C18.0126 23.7449 16.3278 27.1125 14.9439 29.5777C13.6203 32.0433 12.3568 34.0879 11.2734 35.6514C10.1303 37.2149 8.98717 38.4776 7.72335 39.44C6.45982 40.4021 4.89543 41.4846 2.96982 42.6872L1.88684 41.0636C3.09022 40.1615 4.17329 39.2595 5.13595 38.4175C6.0989 37.5756 7.12162 36.3129 8.26503 34.7494C9.40815 33.1858 10.672 31.1413 12.116 28.4955C13.5599 25.9096 15.3652 22.3618 17.5313 17.9718C19.0957 14.7847 20.54 12.1389 21.9239 10.0943C23.3078 8.04976 24.6317 6.42617 25.9553 5.28362C27.2188 4.08102 28.4826 3.29911 29.6858 2.81806C30.8893 2.33699 32.0927 2.15659 33.3563 2.21673C34.5597 2.27685 35.7032 2.57754 36.9066 3.11864C38.0498 3.66003 39.3736 4.74224 40.6972 6.30577C42.0811 7.8693 43.6455 10.1544 45.3303 13.101C47.0151 16.0476 49.0612 19.9563 51.4078 24.767C52.9121 27.8941 54.3561 30.4798 55.68 32.5847C57.0038 34.6893 58.3878 36.373 59.8318 37.756C61.2757 39.1391 62.7801 40.2216 64.4649 41.0636C66.1497 41.9053 68.0149 42.6271 70.1811 43.2883L71.5049 45.5734C68.9175 45.2728 66.571 44.7918 64.5252 44.0702C62.4792 43.3487 60.614 42.2061 58.8691 40.7026C57.1239 39.1995 55.4391 37.275 53.8147 34.9298C52.1899 32.5847 50.5051 29.5777 48.7603 26.03C46.5942 21.7003 44.789 18.2126 43.2846 15.5065C41.7803 12.8004 40.4567 10.6958 39.3133 9.19231C38.1702 7.68884 37.0871 6.66669 36.1845 6.12559C35.2819 5.5842 34.3192 5.28362 33.4166 5.28362C32.3936 5.22356 31.431 5.46409 30.4683 5.88478C29.5053 6.30577 28.5427 7.08768 27.4596 8.23023C26.4366 9.37278 25.2935 10.8159 24.1501 12.68C22.8265 14.4841 21.563 16.8292 20.179 19.5957Z" fill="#101828"/>
<path d="M52.01 46.9562C55.1992 47.0766 58.328 46.8962 61.3967 46.4752C64.4654 46.0542 67.2333 45.3927 69.5802 44.551L69.881 46.2347C65.6088 48.9407 59.5918 50.2037 51.8896 49.9028C48.3999 49.7827 45.3912 49.3617 42.8642 48.7002C40.3368 48.0387 38.1107 47.1967 36.125 46.2347C34.6807 45.5731 33.2367 44.8516 31.9128 44.13C30.5893 43.4084 29.2053 42.7469 27.8211 42.0854C26.4372 41.4239 24.9932 40.9429 23.5492 40.5219C22.1049 40.1009 20.5405 39.8604 18.9158 39.8003C16.5091 39.7403 14.0421 39.9205 11.5751 40.3414C9.10812 40.7624 6.64084 41.484 4.23419 42.386L3.15112 41.1234L5.13679 40.1613C7.06211 39.0187 9.22824 38.1767 11.7556 37.5753C14.2226 36.9741 16.6896 36.7333 19.0362 36.7937C20.9014 36.8537 22.6466 37.0943 24.211 37.5152C25.7754 37.9362 27.2797 38.4773 28.6636 39.1388C30.0476 39.8003 31.4916 40.4618 32.8755 41.2435C34.2594 42.0254 35.7638 42.7469 37.2681 43.4084C39.2538 44.3105 41.2995 45.032 43.526 45.6935C45.8726 46.4752 48.7008 46.8361 52.01 46.9562Z" fill="#101828"/>
<path d="M56.5826 24.0447C55.4391 23.9846 54.4164 24.2852 53.3934 24.8266C52.3704 25.3677 51.2273 26.4502 49.8433 27.9537C48.5195 29.4568 46.9551 31.5615 45.1499 34.2075C43.345 36.8535 41.1785 40.2812 38.5311 44.5505C34.981 50.3236 31.6715 54.4728 28.6027 56.9984C25.534 59.524 22.3452 60.787 18.9756 60.6666C15.4255 60.5462 12.0559 58.7424 8.98717 55.3748C5.85809 51.9472 3.5115 47.1965 1.88684 41.1832L4.83508 41.7844C6.45982 46.5951 8.5659 50.4437 11.093 53.2702C13.6203 56.1564 16.2678 57.5999 19.0957 57.72C21.6831 57.8404 24.3308 56.6978 27.0384 54.4127C29.6858 52.1276 32.6344 48.3991 35.8836 43.1674C38.7719 38.5372 41.2389 34.7486 43.2246 31.8623C45.2102 28.9758 46.9551 26.6907 48.3991 25.1272C49.9034 23.5036 51.2873 22.4211 52.5512 21.88C53.8147 21.3389 55.1986 21.0984 56.703 21.1584C60.0726 21.2785 63.0809 23.263 65.6683 27.1717C68.2557 31.0804 70.6023 37.0337 72.6484 45.0315L69.3989 43.7088C67.4132 37.094 65.3675 32.1629 63.2614 29.0359C61.1556 25.7286 58.9292 24.105 56.5826 24.0447Z" fill="#101828"/>
<path d="M45.1519 69.2064C46.7163 69.2665 48.2807 68.7254 49.7851 67.6429C51.3495 66.5604 53.2751 64.4558 55.6217 61.3287C57.4269 58.9835 58.9312 56.999 60.1347 55.4355C61.3381 53.8722 62.4212 52.4892 63.4439 51.3466C64.4669 50.1437 65.55 49.0012 66.6331 47.919C67.7161 46.8365 69.1001 45.5135 70.7248 43.9499L72.5901 44.9724C71.0857 46.656 69.8222 48.0991 68.8595 49.302C67.8365 50.5046 66.8739 51.7073 65.8509 52.9702C64.8882 54.2329 63.8051 55.6159 62.6017 57.1795C61.3982 58.743 59.8939 60.7275 58.0887 63.1328C55.6217 66.5003 53.3955 68.8455 51.4098 70.2889C49.4842 71.672 47.3181 72.3335 45.0315 72.2731C43.768 72.2131 42.6249 72.0326 41.6619 71.6116C40.6392 71.251 39.4958 70.5294 38.1119 69.4469C36.7883 68.3645 35.2236 66.8613 33.4187 64.8767C31.6135 62.8922 29.3269 60.3666 26.5591 57.1795C24.453 54.7743 22.5877 52.7897 20.9029 51.1662C19.2181 49.5426 17.5333 48.2196 15.8485 47.2575C14.1637 46.235 12.4189 45.4534 10.5536 44.912C8.68806 44.3709 6.52193 43.9499 4.05493 43.6494L4.77707 41.4243C7.30413 41.6648 9.59066 41.9654 11.5763 42.3864C13.562 42.8074 15.4273 43.529 17.2325 44.5514C18.9773 45.5735 20.7825 46.8965 22.5877 48.5201C24.3929 50.2041 26.4387 52.3087 28.6651 54.8944C31.433 58.0815 33.6592 60.5471 35.4043 62.4712C37.1492 64.3354 38.5932 65.7788 39.7366 66.8009C40.8797 67.8234 41.8427 68.4849 42.6849 68.7854C43.4671 69.026 44.3097 69.2064 45.1519 69.2064Z" fill="#101828"/>
</g>
</g>
<defs>
<clipPath id="clip0_480_1657">
<rect width="283" height="73" fill="white"/>
</clipPath>
<clipPath id="clip1_480_1657">
<rect width="282.732" height="72" fill="white" transform="translate(0.134033 0.5)"/>
</clipPath>
</defs>
</svg>
