<svg width="165" height="55" viewBox="0 0 165 55" fill="none" xmlns="http://www.w3.org/2000/svg">
<g clip-path="url(#clip0_477_1133)">
<path d="M70.4565 28.7183C70.4565 36.4913 64.3756 42.2191 56.913 42.2191C49.4504 42.2191 43.3695 36.4913 43.3695 28.7183C43.3695 20.8905 49.4504 15.2174 56.913 15.2174C64.3756 15.2174 70.4565 20.8905 70.4565 28.7183ZM64.5278 28.7183C64.5278 23.8609 61.0034 20.5374 56.913 20.5374C52.8226 20.5374 49.2982 23.8609 49.2982 28.7183C49.2982 33.527 52.8226 36.8991 56.913 36.8991C61.0034 36.8991 64.5278 33.5209 64.5278 28.7183Z" fill="#101828"/>
<path d="M99.6739 28.7183C99.6739 36.4913 93.593 42.2191 86.1304 42.2191C78.6678 42.2191 72.5869 36.4913 72.5869 28.7183C72.5869 20.8965 78.6678 15.2174 86.1304 15.2174C93.593 15.2174 99.6739 20.8905 99.6739 28.7183ZM93.7452 28.7183C93.7452 23.8609 90.2208 20.5374 86.1304 20.5374C82.04 20.5374 78.5156 23.8609 78.5156 28.7183C78.5156 33.527 82.04 36.8991 86.1304 36.8991C90.2208 36.8991 93.7452 33.5209 93.7452 28.7183Z" fill="#101828"/>
<path d="M127.674 16.0331V40.2713C127.674 50.2418 121.794 54.3139 114.843 54.3139C108.299 54.3139 104.361 49.9374 102.876 46.3583L108.037 44.2096C108.957 46.407 111.209 49 114.837 49C119.286 49 122.044 46.2548 122.044 41.087V39.1452H121.837C120.51 40.7826 117.953 42.2131 114.727 42.2131C107.977 42.2131 101.792 36.3331 101.792 28.767C101.792 21.1461 107.977 15.2174 114.727 15.2174C117.947 15.2174 120.504 16.6478 121.837 18.2365H122.044V16.0391H127.674V16.0331ZM122.464 28.767C122.464 24.0131 119.292 20.5374 115.257 20.5374C111.166 20.5374 107.739 24.0131 107.739 28.767C107.739 33.4722 111.166 36.8991 115.257 36.8991C119.292 36.8991 122.464 33.4722 122.464 28.767Z" fill="#101828"/>
<path d="M136.957 1.82605V41.3913H131.174V1.82605H136.957Z" fill="#101828"/>
<path d="M159.49 33.1617L164.092 36.2296C162.607 38.427 159.028 42.213 152.843 42.213C145.174 42.213 139.446 36.2843 139.446 28.7122C139.446 20.6835 145.223 15.2113 152.18 15.2113C159.186 15.2113 162.613 20.787 163.733 23.8L164.348 25.3339L146.3 32.8087C147.682 35.5174 149.83 36.8991 152.843 36.8991C155.863 36.8991 157.956 35.4139 159.49 33.1617ZM145.326 28.3043L157.39 23.2948C156.727 21.6087 154.73 20.4339 152.381 20.4339C149.368 20.4339 145.174 23.0939 145.326 28.3043Z" fill="#101828"/>
<path d="M21.4809 25.206V19.4782H40.7826C40.9713 20.4764 41.0687 21.6573 41.0687 22.9356C41.0687 27.233 39.8939 32.5469 36.1078 36.333C32.4252 40.1678 27.72 42.213 21.4869 42.213C9.9339 42.213 0.219116 32.8025 0.219116 21.2495C0.219116 9.69645 9.9339 0.286011 21.4869 0.286011C27.8782 0.286011 32.4313 2.79384 35.8522 6.06253L31.8104 10.1043C29.3574 7.8034 26.0339 6.01384 21.4809 6.01384C13.0443 6.01384 6.44607 12.813 6.44607 21.2495C6.44607 29.686 13.0443 36.4851 21.4809 36.4851C26.953 36.4851 30.0696 34.2878 32.0661 32.2912C33.6852 30.6721 34.7504 28.3591 35.1704 25.1999L21.4809 25.206Z" fill="#101828"/>
</g>
<defs>
<clipPath id="clip0_477_1133">
<rect width="165" height="55" fill="white"/>
</clipPath>
</defs>
</svg>
